<?xml version="1.0" encoding="UTF-8" standalone="no"?>
<svg
   version="1.1"
   width="1024"
   height="1024"
   id="svg60"
   sodipodi:docname="Copilot_20250623_115658.svg"
   inkscape:export-filename="fluent.png"
   inkscape:export-xdpi="96"
   inkscape:export-ydpi="96"
   xmlns:inkscape="http://www.inkscape.org/namespaces/inkscape"
   xmlns:sodipodi="http://sodipodi.sourceforge.net/DTD/sodipodi-0.dtd"
   xmlns="http://www.w3.org/2000/svg"
   xmlns:svg="http://www.w3.org/2000/svg">
  <defs
     id="defs60" />
  <sodipodi:namedview
     id="namedview60"
     pagecolor="#505050"
     bordercolor="#ffffff"
     borderopacity="1"
     inkscape:showpageshadow="0"
     inkscape:pageopacity="0"
     inkscape:pagecheckerboard="1"
     inkscape:deskcolor="#505050">
    <inkscape:page
       x="0"
       y="0"
       width="1024"
       height="1024"
       id="page2"
       margin="0"
       bleed="0" />
  </sodipodi:namedview>
  <g
     id="g60"
     transform="matrix(2.6145516,0,0,2.6145516,-713.45013,-540.20473)">
    <path
       d="m 0,0 c 9.4237195,8.5670178 14.866619,20.395012 16.066406,33.011719 0.568706,18.686701 -5.528079,36.046997 -18.1835935,49.972656 -4.9009635,5.165757 -10.0176805,9.516417 -16.1874995,13.125 -0.876563,0.519492 -1.753125,1.038984 -2.65625,1.574219 -13.935808,7.599606 -28.97464,9.791396 -44.514405,11.838626 -12.178194,1.65704 -23.978055,4.36322 -35.829348,7.58716 -0.72429,0.19142 -1.44858,0.38285 -2.19482,0.58007 -20.00687,5.40969 -37.32623,17.2698 -53.80518,29.41992 -1.66145,1.21747 -3.3229,2.43492 -4.98437,3.65235 -3.21011,2.3587 -6.41541,4.72375 -9.61719,7.09375 -29.79683,22.04811 -62.77089,42.74436 -101.47656,37.78906 -22.09476,-3.38612 -42.71698,-13.99945 -56.29688,-32.09766 -7.625,-10.98987 -7.625,-10.98987 -7.625,-15.4375 3.79229,1.45965 7.41035,3.15895 11.0625,4.9375 16.68425,7.65866 33.64854,8.05733 50.9375,2.0625 21.08514,-8.52192 40.57676,-23.45571 55.16797,-40.85156 1.87007,-2.19304 3.8126,-4.30845 5.77466,-6.41919 5.61539,-6.04417 10.89225,-12.293468 16.05737,-18.729245 2.16361,-2.669152 4.33204,-5.33438 6.5,-8 1.12378,-1.382744 2.24748,-2.765555 3.3711,-4.148438 0.53609,-0.659677 1.07217,-1.319355 1.62451,-1.999023 1.30626,-1.608555 2.61058,-3.218688 3.91455,-4.829102 10.39253,-12.787905 21.19577,-25.118912 32.58984,-37.023437 0.62923,-0.663223 1.25845,-1.326445 1.90674,-2.009766 C -112.87534,-6.1834886 -46.76012,-38.359149 0,0 Z"
       fill="#1294cd"
       transform="translate(629.30469,244.89062)"
       id="path2" />
    <path
       d="M 0,0 C 0.97831787,-0.01466309 1.9566357,-0.02932617 2.9645996,-0.04443359 12.897325,0.09538091 21.567813,2.7583926 28.84375,9.6914063 35.962616,17.73371 36.048242,26.342442 35.5,36.5625 c -1.188062,7.978548 -5.097161,13.744654 -10,20 -0.474375,0.639375 -0.94875,1.27875 -1.4375,1.9375 -13.424907,17.086245 -37.331082,21.99232 -57.375,26.625 -16.096054,3.726636 -30.634443,8.219874 -43.1875,19.4375 -0.66,0 -1.32,0 -2,0 -0.271992,0.58652 -0.543984,1.17305 -0.824219,1.77734 -1.152972,2.17954 -2.430204,3.88176 -3.988281,5.78516 -8.187552,10.84351 -12.906115,25.82375 -11.1875,39.4375 2.031397,11.12104 4.979277,21.80544 12.9375,30.25 2.0625,2.75 2.0625,2.75 2,6.5625 -0.309375,1.05187 -0.61875,2.10375 -0.9375,3.1875 -3.934981,1.96749 -8.248845,1.50653 -12.363281,0.31641 -2.60569,-1.00155 -5.1149,-2.1193 -7.636719,-3.31641 -0.86625,-0.4009 -1.7325,-0.8018 -2.625,-1.21484 -18.25267,-9.15287 -30.87213,-24.54753 -37.40625,-43.82813 -5.89352,-21.52773 -0.72073,-42.79952 9.65625,-61.95703 9.68781,-16.022145 23.75353,-29.55017 38.375,-41 0.996445,-0.801797 1.992891,-1.603594 3.019531,-2.429688 C -72.242529,24.394062 -52.400176,12.701644 -31.5,5.5625 -30.453684,5.198501 -30.453684,5.198501 -29.38623,4.8271484 -19.622055,1.5413985 -10.309214,0.09427941 0,0 Z"
       fill="#fc7718"
       transform="translate(599.5,384.4375)"
       id="path3" />
    <path
       d="m 0,0 c 6.7340063,6.1218239 13.376879,15.16755 13.878906,24.535156 -0.06059,0.849492 -0.121172,1.698985 -0.183593,2.574219 -0.99,0.33 -1.98,0.66 -3,1 -0.12375,-1.175625 -0.2475,-2.35125 -0.375,-3.5625 -0.621344,-5.006254 -2.0325129,-9.660037 -3.6250005,-14.4375 -0.66,0 -1.32,0 -2,0 -0.2475,-0.5775 -0.495,-1.155 -0.75,-1.75 -2.4707632,-4.4473738 -5.9138852,-6.7722201 -10.25,-9.25 -0.8933203,-0.6355078 -1.7866406,-1.2710156 -2.7070313,-1.9257813 -3.4704312,-2.186001 -6.7230372,-3.4621087 -10.6054682,-4.7617187 -6.603904,-2.2289038 -6.603904,-2.2289038 -7.6875,-3.3125 -1.43194,-0.209127 -2.871411,-0.36792 -4.3125,-0.5 -2.28364,-0.211378 -4.384856,-0.410328 -6.585938,-1.0625 -2.900394,-0.6038 -5.473421,-0.241585 -8.414062,0.0625 -3.772086,0.341384 -6.797067,0.484095 -10.5625,-0.0625 -3.895557,-0.545378 -6.359817,0.443436 -10.125,1.5625 -2.55727,0.545934 -5.120047,1.0666621 -7.6875,1.5625 -4.784945,0.9034216 -4.784945,0.9034216 -9.519532,2.0273438 -1.792968,0.4101562 -1.792968,0.4101562 -5.792968,0.4101562 0,0.66 0,1.32 0,2 -0.603282,0.1817578 -1.206563,0.3635156 -1.828125,0.5507813 -4.317566,1.3579441 -7.603871,2.6194223 -11.171878,5.4492187 -3.61898,1.385994 -7.1868,2.327082 -11,3 0,0.66 0,1.32 0,2 -2.40477,2.1986535 -4.409,3.7931497 -7.5,4.875 -3.4755,1.563974 -5.09236,4.223488 -7.5,7.125 -2.1875,0.625 -2.1875,0.625 -4,1 -0.70394,1.314033 -1.36345,2.652026 -2,4 -2.71085,3.029781 -5.5845,5.459415 -8.875,7.8125 -5.20831,3.820089 -9.51281,8.397182 -12.75,14 -2.07203,3.296421 -4.98189,4.490946 -8.375,6.1875 1.611,-3.875592 4.22487,-6.67313 7.0625,-9.6875 0.52312,-0.558164 1.04624,-1.116328 1.58521,-1.691406 1.77575,-1.881809 3.563,-3.752161 5.35229,-5.621094 0.64486,-0.678853 1.28971,-1.357705 1.9541,-2.057129 C -113.55591,-5.4448838 -47.398901,-38.883166 0,0 Z"
       fill="#09b7e8"
       transform="translate(629.30469,244.89062)"
       id="path11" />
    <path
       d="M 0,0 C 3.7922918,1.4596482 7.4103482,3.1589428 11.0625,4.9375 27.835278,12.636789 44.64321,12.913596 62,7 65.377305,5.6053304 68.583164,3.9469075 71.777344,2.171875 74,1 74,1 76,1 75.5,2.8125 75.5,2.8125 74,5 71.993397,5.9395325 69.988989,6.628441 67.875,7.2890625 65.795539,7.9308084 65.795539,7.9308084 64,10 58.571824,11.745367 52.985706,12.985913 47.3125,13.5625 45.672812,13.779063 45.672812,13.779063 44,14 43.67,14.66 43.34,15.32 43,16 38.012001,15.140988 33.027294,14.266444 28.046387,13.367188 26.450264,13.080792 24.852399,12.804108 23.253906,12.53125 17.071619,11.351511 11.630639,8.7574346 6,6 c 0,0.99 0,1.98 0,3 0,0.66 0,1.32 0,2 0.66,0 1.32,0 2,0 0.433125,0.7425 0.86625,1.485 1.3125,2.25 1.555661,2.891993 1.555661,2.891993 4.3125,4.8125 2.638502,2.152462 2.645995,2.813193 3.375,5.9375 1.816014,1.200033 1.816014,1.200033 4,2 3.236885,1.428037 3.929897,1.894846 6,5 2.551834,1.204503 2.551834,1.204503 5,2 0,0.66 0,1.32 0,2 2.64,0.66 5.28,1.32 8,2 0,0.66 0,1.32 0,2 1.051875,0.28875 2.10375,0.5775 3.1875,0.875 3.040687,0.897252 5.899623,1.889234 8.8125,3.125 0.495,-0.99 0.495,-0.99 1,-2 0,0.99 0,1.98 0,3 0.928125,-0.185625 1.85625,-0.37125 2.8125,-0.5625 C 59,43 59,43 62,44 c 0.94875,0 1.8975,0 2.875,0 C 68,44 68,44 70.375,44.5625 74.090153,45.181692 77.271192,44.541279 81,44 c 3,0 3,0 4.8125,0.625 C 88.90397,45.154966 91.06652,44.017738 94,43 c 1.666667,0 3.333333,0 5,0 4.03285,-0.913098 7.49396,-2.196651 11.125,-4.125 3.1023,-1.629611 5.30606,-2.321117 8.875,-1.875 0,-0.66 0,-1.32 0,-2 1.65,-0.33 3.3,-0.66 5,-1 0,-0.66 0,-1.32 0,-2 1.98,-0.33 3.96,-0.66 6,-1 0,0.66 0,1.32 0,2 C 102.5667,46.605595 75.633855,53.045696 45.89917,43.10083 27.000651,36.324169 10.812361,23.411008 1.5,5.4375 0,2 0,2 0,0 Z"
       fill="#074a94"
       transform="translate(292,393)"
       id="path12" />
    <path
       d="M 0,0 C 0.66,0.33 1.32,0.66 2,1 3.0906669,20.365397 -1.2471752,38.191232 -14.267578,53.173584 -19.591977,59.037322 -25.235031,63.828055 -32,68 c -1.485,0.99 -1.485,0.99 -3,2 -0.99,-0.33 -1.98,-0.66 -3,-1 2.475,-0.99 2.475,-0.99 5,-2 0,-0.66 0,-1.32 0,-2 0.99,0 1.98,0 3,0 0,-0.66 0,-1.32 0,-2 0.61875,-0.268125 1.2375,-0.53625 1.875,-0.8125 2.424523,-1.143068 2.424523,-1.143068 4.125,-4.1875 0.78375,-0.433125 1.5675,-0.86625 2.375,-1.3125 3.220369,-2.070237 4.60233,-4.479126 6.625,-7.6875 0.99,-0.495 0.99,-0.495 2,-1 0.652133,-2.024633 0.652133,-2.024633 1,-4 0.66,0 1.32,0 2,0 0.1933594,-0.580078 0.3867187,-1.160156 0.5859375,-1.757813 0.5388023,-1.616407 1.0792397,-3.232269 1.6210938,-4.847656 C -7.1516482,35.457933 -6.5399324,33.511546 -5.9375,31.5625 -5,29 -5,29 -3,27 c 0.381333,-1.991406 0.7132558,-3.992791 1,-6 0.495,-1.485 0.495,-1.485 1,-3 0.0445715,-1.749432 0.0390964,-3.500437 0,-5.25 C -1.0465951,8.3642328 -0.76671383,4.3127653 0,0 Z"
       fill="#4ac3e2"
       transform="translate(643,273)"
       id="path14" />
    <path
       d="M 0,0 C 0.33,0 0.66,0 1,0 1.2191406,1.0273828 1.4382812,2.0547656 1.6640625,3.1132813 3.9288853,13.205478 6.6578373,22.525469 13.9375,30.25 16,33 16,33 15.9375,36.8125 15.628125,37.864375 15.31875,38.91625 15,40 11.065019,41.967491 6.7511554,41.506533 2.6367188,40.316406 -6.8746983,36.660503 -15.537998,31.964535 -23,25 c 3.380522,0 3.888695,0.433651 6.4375,2.4375 1.922502,1.509616 3.203244,2.479064 5.597656,3.035156 C -8.5394278,31.123613 -7.7397955,32.225057 -6,34 c 5.83371835,3.141233 10.539068,4.749836 17,3 0.66,-0.33 1.32,-0.66 2,-1 C 11.934643,32.590858 10.443756,30.259567 8.1875,27.5625 2.6211637,20.386292 -0.15559666,10.959448 -1,2 -0.67,1.34 -0.34,0.68 0,0 Z"
       fill="#f19723"
       transform="translate(504,536)"
       id="path16" />
    <path
       d="m 0,0 c 0.66,0.33 1.32,0.66 2,1 -2.54059784,2.7647682 -4.5917733,4.8043914 -8,6.4375 -2.8364578,1.4773218 -3.7529494,2.2699132 -5.625,4.6875 -2.474515,2.995466 -2.877442,3.151367 -6.375,3.875 -0.703946,1.314033 -1.363457,2.652026 -2,4 -2.710856,3.029781 -5.584507,5.459415 -8.875,7.8125 -5.208317,3.820089 -9.512816,8.397182 -12.75,14 -2.072036,3.296421 -4.981892,4.490946 -8.375,6.1875 1.610994,-3.875592 4.22487,-6.67313 7.0625,-9.6875 0.523118,-0.558164 1.046235,-1.116328 1.585205,-1.691406 C -39.576543,34.739285 -37.789295,32.868933 -36,31 c 0.644854,-0.678853 1.289707,-1.357705 1.954102,-2.057129 C -12.276799,6.1383997 -12.276799,6.1383997 0,0 Z"
       fill="#03bbf3"
       transform="translate(514,248)"
       id="path17" />
    <path
       d="m 0,0 c 0.66,0.33 1.32,0.66 2,1 -9.4293549,8.0482878 -19.348468,12.698936 -31.125,16.3125 -0.822825,0.25467 -1.645649,0.509341 -2.493408,0.771729 C -37.390166,19.770986 -43.004774,20.595175 -49,21 c 3.186836,-2.529517 5.259068,-3.449605 9.3125,-4 4.641162,-0.743815 8.402992,-2.016432 12.6875,-4 1.473017,-0.517837 2.952734,-1.016882 4.4375,-1.5 1.129219,-0.373184 1.129219,-0.373184 2.28125,-0.753906 1.517785,-0.496399 3.038665,-0.9834346 4.5625,-1.4609377 C -11.54542,8.0318834 -11.54542,8.0318834 -8.8125,4.875 -8.544375,4.25625 -8.27625,3.6375 -8,3 -5.5625,2.375 -5.5625,2.375 -3,2 -2.01,1.34 -1.02,0.68 0,0 Z"
       fill="#f39929"
       transform="translate(616,447)"
       id="path20" />
    <path
       d="M 0,0 C 11.069877,0.85152898 19.758505,9.1299745 26.824219,17.042969 31.656116,23.140653 35.821859,29.986872 35,38 34.01,38.33 33.02,38.66 32,39 31.87625,37.824375 31.7525,36.64875 31.625,35.4375 31.003656,30.431246 29.592488,25.777463 28,21 27.34,21 26.68,21 26,21 25.7525,20.4225 25.505,19.845 25.25,19.25 22.779237,14.802626 19.336115,12.47778 15,10 14.01,9.319375 13.02,8.63875 12,7.9375 9.3568404,6.2304594 6.9537707,5.0425073 4,4 4,3.34 4,2.68 4,2 2.68,1.67 1.36,1.34 0,1 0,0.67 0,0.34 0,0 Z"
       fill="#57ddf1"
       transform="translate(608,234)"
       id="path21" />
    <path
       d="M 0,0 C 1.75,1.625 1.75,1.625 3,3 -2.5289612,2.2460507 -2.5289612,2.2460507 -4.921875,0.99609375 -7.2123062,-0.10176333 -8.9788435,-0.3595987 -11.5,-0.5625 c -2.230535,-0.18715103 -4.249971,-0.36341719 -6.398437,-1 -2.854106,-0.5941633 -5.33537,-0.2059197 -8.226563,0.125 C -32.124913,-0.89513499 -37.208387,-1.4180921 -43,-3 c 0,-0.33 0,-0.66 0,-1 12.647199,-2.4427611 31.598342,-2.8678221 43,4 z"
       fill="#2cc0e0"
       transform="translate(609,234)"
       id="path22" />
    <path
       d="M 0,0 C -0.5,1.8125 -0.5,1.8125 -2,4 -4.0066033,4.9395325 -6.0110112,5.628441 -8.125,6.2890625 -10.204461,6.9308084 -10.204461,6.9308084 -12,9 c -5.428176,1.745367 -11.014294,2.985913 -16.6875,3.5625 -1.639687,0.216563 -1.639687,0.216563 -3.3125,0.4375 -0.33,0.66 -0.66,1.32 -1,2 -1.959794,-0.281683 -3.917824,-0.575667 -5.875,-0.875 -1.63582,-0.243633 -1.63582,-0.243633 -3.304687,-0.492187 C -45,13 -45,13 -47,11 c 1.43666,-0.03867 1.43666,-0.03867 2.902344,-0.07813 14.1952,-0.538899 27.350789,-2.7901912 39.8749998,-9.75 C -2,0 -2,0 0,0 Z"
       fill="#04519a"
       transform="translate(368,394)"
       id="path24" />
    <path
       d="M 0,0 C 0.66,0.66 1.32,1.32 2,2 0.88200014,3.3392084 -0.24461897,4.6712256 -1.375,6 -2.0014844,6.7425 -2.6279688,7.485 -3.2734375,8.25 -3.8432031,8.8275 -4.4129687,9.405 -5,10 c -0.66,0 -1.32,0 -2,0 0,0.66 0,1.32 0,2 -1.6538523,1.349195 -3.321702,2.681337 -5,4 -0.66,0.99 -1.32,1.98 -2,3 -1.313584,0.704783 -2.649776,1.368244 -4,2 -1.376044,0.948176 -2.730264,1.928697 -4.0625,2.9375 -0.671602,0.504023 -1.343203,1.008047 -2.035156,1.527344 -1.911576,1.481297 -1.911576,1.481297 -3.488281,3.15625 C -29.488415,30.476272 -31.520794,31.110028 -34,32 c -0.99,0.495 -0.99,0.495 -2,1 -0.66,-0.66 -1.32,-1.32 -2,-2 0.571055,-0.317109 1.142109,-0.634219 1.730469,-0.960938 C -23.643978,22.772846 -8.2029985,12.304498 0,0 Z"
       fill="#0462ab"
       transform="translate(406,362)"
       id="path27" />
    <path
       d="M 0,0 C 5.2683516,4.6988001 7.7069531,8.4713947 8.2851563,15.433594 8.5798812,28.158021 6.3549011,37.207697 -2,47 c -2.2226562,1.785156 -2.2226562,1.785156 -4,3 -0.66,-0.66 -1.32,-1.32 -2,-2 0.804375,-0.598125 1.60875,-1.19625 2.4375,-1.8125 C -2.7767202,44.190527 -2.7767202,44.190527 -2,41 c 0.99,0 1.98,0 3,0 0,-1.32 0,-2.64 0,-4 0.66,0 1.32,0 2,0 C 6.9857248,20.838008 6.9857248,20.838008 2.4375,5.4375 1.7549414,4.5074414 1.7549414,4.5074414 1.0585937,3.5585938 0,2 0,2 0,0 Z"
       fill="#f68f1d"
       transform="translate(627,394)"
       id="path28" />
    <path
       d="m 0,0 c 0,0.66 0,1.32 0,2 -28.705624,14.236604 -28.705624,14.236604 -44.375,14.0625 -1.589414,-0.01354 -1.589414,-0.01354 -3.210937,-0.02734 C -48.382578,16.023555 -49.179219,16.011953 -50,16 c 0,-0.33 0,-0.66 0,-1 1.19625,-0.12375 2.3925,-0.2475 3.625,-0.375 2.736876,-0.333059 4.91726,-0.805753 7.5625,-1.6875 C -35.950096,11.983365 -33.982903,12 -31,12 -26.967152,11.086902 -23.50604,9.8033491 -19.875,7.875 -16.772704,6.245389 -14.568938,5.5538827 -11,6 c 0,-0.66 0,-1.32 0,-2 1.65,-0.33 3.3,-0.66 5,-1 0,-0.66 0,-1.32 0,-2 2.0755365,-0.5534764 3.8436596,-1 6,-1 z"
       fill="#10549b"
       transform="translate(422,424)"
       id="path29" />
    <path
       d="M 0,0 C 0.66,0.66 1.32,1.32 2,2 -0.03541895,4.0847624 -2.1413995,6.0052439 -4.375,7.875 -7.4020338,10.452412 -10.221882,13.152429 -13,16 c -0.533672,0.523359 -1.067344,1.046719 -1.617188,1.585937 C -18.976374,21.867627 -23.031082,26.355522 -27,31 -27.66,30.67 -28.32,30.34 -29,30 -20.096376,19.167545 -10.866696,8.9348391 0,0 Z"
       fill="#f4681b"
       transform="translate(503,428)"
       id="path30" />
    <path
       d="M 0,0 C 0.99,0.33 1.98,0.66 3,1 2.3851172,1.7360547 1.7702344,2.4721094 1.1367187,3.2304688 0.32847656,4.2062891 -0.47976563,5.1821094 -1.3125,6.1875 -2.1130078,7.1504297 -2.9135156,8.1133594 -3.7382813,9.1054688 -5.7336134,11.65908 -7.3594355,14.214856 -9,17 c -1.619746,1.712302 -3.295895,3.371633 -5,5 -1.440174,1.434821 -2.877538,2.872467 -4.3125,4.3125 -1.229167,1.229167 -2.458333,2.458333 -3.6875,3.6875 -0.66,-0.66 -1.32,-1.32 -2,-2 0.473086,-0.449883 0.946172,-0.899766 1.433594,-1.363281 C -14.182532,18.481645 -7.1111523,9.2605038 0,0 Z"
       fill="#027ac4"
       transform="translate(433,331)"
       id="path31" />
    <path
       d="M 0,0 C -0.33,0.66 -0.66,1.32 -1,2 -3.0095215,2.5783691 -3.0095215,2.5783691 -5.6210937,3.0351563 -7.023916,3.2894238 -7.023916,3.2894238 -8.4550781,3.5488281 -9.4392773,3.7183398 -10.423477,3.8878516 -11.4375,4.0625 c -1.936649,0.3425106 -3.872872,0.6874456 -5.808594,1.0351562 -0.862947,0.1496119 -1.725893,0.2992237 -2.61499,0.4533692 C -22.03893,5.9136597 -22.03893,5.9136597 -24,7 -24.66,6.34 -25.32,5.68 -26,5 -26,4.34 -26,3.68 -26,3 -8.5174051,-1.5644213 -8.5174051,-1.5644213 0,0 Z"
       fill="#1abfe5"
       transform="translate(569,231)"
       id="path32" />
    <path
       d="m 0,0 c 0.66,0.33 1.32,0.66 2,1 -0.4971915,4.2514949 -3.1362768,6.811595 -5.9375,9.8125 -0.4885547,0.528999 -0.9771094,1.057998 -1.4804687,1.603027 C -9.7977509,17.028127 -14.602871,20.636863 -20,24 c -0.99,0.66 -1.98,1.32 -3,2 -0.99,-0.33 -1.98,-0.66 -3,-1 1.65,-0.66 3.3,-1.32 5,-2 0,-0.66 0,-1.32 0,-2 0.99,0 1.98,0 3,0 0,-0.66 0,-1.32 0,-2 0.61875,-0.268125 1.2375,-0.53625 1.875,-0.8125 2.424523,-1.143068 2.424523,-1.143068 4.125,-4.1875 0.78375,-0.433125 1.5675,-0.86625 2.375,-1.3125 C -6.4046313,10.617263 -5.0226704,8.2083738 -3,5 -2.34,4.67 -1.68,4.34 -1,4 -0.34786708,1.9753674 -0.34786708,1.9753674 0,0 Z"
       fill="#3fbde1"
       transform="translate(631,317)"
       id="path33" />
    <path
       d="M 0,0 C 0,0.66 0,1.32 0,2 -2.4160523,2.8143659 -4.8328,3.626554 -7.25,4.4375 -8.2728711,4.7826465 -8.2728711,4.7826465 -9.3164063,5.1347656 -15.261752,7.126168 -19.706438,8.1210301 -26,8 -26.33,7.34 -26.66,6.68 -27,6 -18.728892,3.9817777 -18.728892,3.9817777 -15.5,4.0625 -10.008187,3.9252047 -5.2320818,0 0,0 Z"
       fill="#31b9e8"
       transform="translate(604,343)"
       id="path34" />
    <path
       d="M 0,0 C 0.33,0 0.66,0 1,0 1.2191406,1.0273828 1.4382812,2.0547656 1.6640625,3.1132813 3.452949,11.066132 5.4882591,17.848597 9.828125,24.863281 11,27 11,27 11,30 4.2016269,24.221383 0.58327736,13.509005 -0.8125,4.9375 -1,2 -1,2 0,0 Z"
       fill="#ea8f22"
       transform="translate(504,536)"
       id="path35" />
    <path
       d="M 0,0 C 1.5625,1.625 1.5625,1.625 3,4 2.75,6.625 2.75,6.625 2,10 1.8156247,11.664801 1.6502904,13.331777 1.5,15 1.1477813,18.701092 0.67401396,22.341067 0,26 -0.33,26 -0.66,26 -1,26 -1.027161,22.979105 -1.046917,19.958459 -1.0625,16.9375 -1.07088,16.089941 -1.079258,15.242383 -1.087891,14.369141 -1.1068301,9.4638278 -0.83326345,4.8355524 0,0 Z"
       fill="#ea631b"
       transform="translate(458,492)"
       id="path36" />
    <path
       d="M 0,0 C 1.0402734,0.17144531 2.0805469,0.34289062 3.1523438,0.51953125 7.4419466,1.5041247 10.108876,2.9385132 13.0625,6.1875 7.5297853,5.4330389 7.5297853,5.4330389 5.1445312,4.1796875 2.1952752,2.7742259 -0.5930619,2.7486763 -3.8164063,2.53125 -5.9375,2.1875 -5.9375,2.1875 -8.9375,0.1875 -5.4417635,-0.97774551 -3.6038464,-0.61920229 0,0 Z"
       fill="#3dc9e6"
       transform="translate(598.9375,230.8125)"
       id="path37" />
    <path
       d="M 0,0 C 0.66,0.66 1.32,1.32 2,2 0.88200014,3.3392084 -0.24461897,4.6712256 -1.375,6 -2.3147266,7.11375 -2.3147266,7.11375 -3.2734375,8.25 -3.8432031,8.8275 -4.4129687,9.405 -5,10 c -0.66,0 -1.32,0 -2,0 0,0.66 0,1.32 0,2 -1.6538523,1.349195 -3.321702,2.681337 -5,4 -0.66,0.99 -1.32,1.98 -2,3 -0.99,-0.66 -1.98,-1.32 -3,-2 C -12.745464,12.625806 -8.3705953,8.5061194 -3.6992188,4.578125 -1.7740748,2.9126502 -1.7740748,2.9126502 0,0 Z"
       fill="#0369b2"
       transform="translate(406,362)"
       id="path38" />
    <path
       d="M 0,0 C 2.5625,1.5625 2.5625,1.5625 5,4 4.9375,7.6875 4.9375,7.6875 4,11 0.78548731,12.607256 -2.4361254,12.057482 -6,12 -6.33,11.34 -6.66,10.68 -7,10 -5.88625,9.690625 -4.7725,9.38125 -3.625,9.0625 -0.2054845,8.1767352 -0.2054845,8.1767352 2,7 1.34,4.69 0.68,2.38 0,0 Z"
       fill="#f69c2b"
       transform="translate(515,565)"
       id="path39" />
    <path
       d="m 0,0 c 0,0.66 0,1.32 0,2 -2.7631762,1.3702179 -5.5365848,2.7183018 -8.3125,4.0625 -1.1785254,0.5849121 -1.1785254,0.5849121 -2.380859,1.1816406 -0.757325,0.3641602 -1.514649,0.7283203 -2.294922,1.1035157 -0.696497,0.340393 -1.392993,0.6807861 -2.110596,1.0314941 C -17,10 -17,10 -20,9 c 2.359687,-2.0974999 3.54617,-2.969057 6.75,-3.1875 1.11375,0.092812 1.11375,0.092812 2.25,0.1875 0,-0.66 0,-1.32 0,-2 1.65,-0.33 3.3,-0.66 5,-1 0,-0.66 0,-1.32 0,-2 2.0755365,-0.5534764 3.8436596,-1 6,-1 z"
       fill="#125fa7"
       transform="translate(422,424)"
       id="path40" />
    <path
       d="M 0,0 C 6.9151158,0.53193199 13.314623,3.9130189 18,9 17.01,9.33 16.02,9.66 15,10 12.966648,8.7181041 10.969188,7.3784319 9,6 7.3538089,5.2842647 5.6927194,4.5974304 4,4 4,3.34 4,2.68 4,2 2.68,1.67 1.36,1.34 0,1 0,0.67 0,0.34 0,0 Z"
       fill="#49d3e9"
       transform="translate(608,234)"
       id="path41" />
    <path
       d="M 0,0 C 0.66,0.33 1.32,0.66 2,1 2,6.61 2,12.22 2,18 1.01,18 0.02,18 -1,18 -1.0994541,11.889095 -1.0712828,6.0259657 0,0 Z"
       fill="#50c0d9"
       transform="translate(643,273)"
       id="path42" />
    <path
       d="m 0,0 c -0.66,0 -1.32,0 -2,0 0,0.66 0,1.32 0,2 -1.32,0 -2.64,0 -4,0 0,0.66 0,1.32 0,2 -4.455,0.495 -4.455,0.495 -9,1 2.633701,-2.6337014 3.666203,-3.5193391 6.9375,-4.75 0.6690234,-0.26296875 1.3380469,-0.5259375 2.0273438,-0.796875 C -3.6835251,-1.0704627 -2.2638248,-0.74954377 0,0 Z"
       fill="#0ec6ef"
       transform="translate(545,236)"
       id="path44" />
    <path
       d="m 0,0 c -0.5,1.8125 -0.5,1.8125 -2,4 -4.3869216,2.3142018 -9.100759,3.3875949 -14,4 2.895859,-2.2964836 5.817203,-4.0434756 9.125,-5.6875 C -5.5717578,1.6570117 -5.5717578,1.6570117 -4.2421875,0.98828125 -2,0 -2,0 0,0 Z"
       fill="#055ba5"
       transform="translate(368,394)"
       id="path45" />
    <path
       d="M 0,0 C 1.32,0.33 2.64,0.66 4,1 3.01,1.33 2.02,1.66 1,2 0.30562253,3.9905488 -0.35610218,5.9925538 -1,8 -2.2807237,10.034091 -3.6028773,12.044028 -5,14 -5.66,13.67 -6.32,13.34 -7,13 -3.535,6.565 -3.535,6.565 0,0 Z"
       fill="#ee631c"
       transform="translate(471,462)"
       id="path46" />
    <path
       d="M 0,0 C 0.99,0.33 1.98,0.66 3,1 1.7623818,2.6551642 0.50942545,4.298868 -0.75,5.9375 -1.4460937,6.8540234 -2.1421875,7.7705469 -2.859375,8.7148438 -5.0102903,11.010985 -5.9361726,11.675676 -9,12 -6,8 -3,4 0,0 Z"
       fill="#0185cf"
       transform="translate(433,331)"
       id="path47" />
    <path
       d="M 0,0 C 0.66,0.66 1.32,1.32 2,2 -1.0640465,7.1067441 -3.775178,9.387589 -9,12 -7.5557536,8.761387 -5.7422775,6.3803084 -3.375,3.75 -2.7433594,3.0435938 -2.1117188,2.3371875 -1.4609375,1.609375 -0.97882813,1.0782812 -0.49671875,0.5471875 0,0 Z"
       fill="#01a0e2"
       transform="translate(473,284)"
       id="path48" />
    <path
       d="M 0,0 C 1.32,0.33 2.64,0.66 4,1 4.33,3.97 4.66,6.94 5,10 4.01,10.33 3.02,10.66 2,11 1.7721354,9.0143229 1.5442708,7.0286458 1.3164062,5.0429687 1.0282926,2.8060361 1.0282926,2.8060361 0,0 Z"
       fill="#55cee7"
       transform="translate(638,262)"
       id="path49" />
    <path
       d="M 0,0 C 0.33,0.99 0.66,1.98 1,3 -0.79008467,3.2215155 -2.5821816,3.4268221 -4.375,3.625 -5.3727344,3.7410156 -6.3704687,3.8570313 -7.3984375,3.9765625 -8.2569531,3.9842969 -9.1154688,3.9920313 -10,4 -10.66,3.34 -11.32,2.68 -12,2 -10.563428,1.6626916 -9.1256991,1.3303041 -7.6875,1 -6.8869922,0.814375 -6.0864844,0.62875 -5.2617187,0.4375 -3,0 -3,0 0,0 Z"
       fill="#1e1721"
       transform="translate(575,467)"
       id="path50" />
    <path
       d="M 0,0 C 0.33,0 0.66,0 1,0 1.3198573,6.7170035 0.4793824,11.757269 -2,18 -3.7494019,11.84421 -1.5608953,6.0354617 0,0 Z"
       fill="#55d8ef"
       transform="translate(643,286)"
       id="path51" />
    <path
       d="M 0,0 C -1,3 -1,3 -3.2851563,4.3867187 -4.2016797,4.8159766 -5.1182031,5.2452344 -6.0625,5.6875 -6.9816016,6.1244922 -7.9007031,6.5614844 -8.8476563,7.0117187 -9.5579297,7.3378516 -10.268203,7.6639844 -11,8 c 0.351562,-1.9296875 0.351562,-1.9296875 1,-4 2.375,-1.125 2.375,-1.125 5,-2 3,-2 3,-2 5,-2 z"
       fill="#1464a9"
       transform="translate(434,417)"
       id="path52" />
    <path
       d="M 0,0 C 0.99,0.66 1.98,1.32 3,2 2.34,2 1.68,2 1,2 0.773125,2.556875 0.54625,3.11375 0.3125,3.6875 -2.1803018,8.0795794 -5.4702337,10.898959 -10,13 -9.6016797,12.541094 -9.2033594,12.082188 -8.7929688,11.609375 -3.9019548,6.1522555 -3.9019548,6.1522555 0,0 Z"
       fill="#02a0e1"
       transform="translate(495,262)"
       id="path53" />
    <path
       d="m 0,0 c -1.65,0.66 -3.3,1.32 -5,2 0,0.33 0,0.66 0,1 -2.31,0 -4.62,0 -7,0 -0.33,-0.66 -0.66,-1.32 -1,-2 1.413778,-0.36552803 2.831206,-0.71695495 4.25,-1.0625 0.7889063,-0.19722656 1.5778125,-0.39445312 2.390625,-0.59765625 C -3.8960518,-1.0149727 -2.3439587,-0.76877544 0,0 Z"
       fill="#29a5d7"
       transform="translate(590,348)"
       id="path54" />
    <path
       d="M 0,0 C 0.66,0.66 1.32,1.32 2,2 0.93106782,3.0359034 -0.15578488,4.0533394 -1.25,5.0625 -2.1549219,5.9152148 -2.1549219,5.9152148 -3.078125,6.7851562 -4.0294531,7.3865039 -4.0294531,7.3865039 -5,8 -6.32,7.67 -7.64,7.34 -9,7 -6.03,4.69 -3.06,2.38 0,0 Z"
       fill="#f2691a"
       transform="translate(513,420)"
       id="path55" />
    <path
       d="M 0,0 C -1.452557,3.8294684 -3.4289556,5.1205029 -7,7 -7.33,6.01 -7.66,5.02 -8,4 -4.5,0 -4.5,0 0,0 Z"
       fill="#146fb3"
       transform="translate(454,403)"
       id="path56" />
    <path
       d="M 0,0 C 0.66,0.66 1.32,1.32 2,2 0.92807816,3.3218362 -0.15802695,4.6321793 -1.25,5.9375 -1.8532812,6.6683984 -2.4565625,7.3992969 -3.078125,8.1523438 -5.1074113,10.103263 -6.254407,10.617318 -9,11 -8.6016797,10.541094 -8.2033594,10.082188 -7.7929687,9.609375 -5.0885794,6.4772841 -2.4200823,3.3612254 0,0 Z"
       fill="#0374bf"
       transform="translate(406,362)"
       id="path57" />
    <path
       d="M 0,0 C 0.33,0.99 0.66,1.98 1,3 -2.4056285,3.7784294 -5.5076576,4.0997812 -9,4 -6.0135323,2.0090215 -3.4031274,1.0587507 0,0 Z"
       fill="#1c1521"
       transform="translate(597,460)"
       id="path58" />
    <path
       d="M 0,0 C 0,0.99 0,1.98 0,3 -2.5654594,5.5654594 -4.4768667,5.5404609 -8,6 -5.5104708,3.3326473 -3.3659187,1.4425366 0,0 Z"
       fill="#0c0e15"
       transform="translate(433,419)"
       id="path59" />
    <path
       d="M 0,0 C 0.99,0.33 1.98,0.66 3,1 -1.75,5.875 -1.75,5.875 -4,7 -4.66,6.34 -5.32,5.68 -6,5 -5.38125,4.731875 -4.7625,4.46375 -4.125,4.1875 -1.7004767,3.0444315 -1.7004767,3.0444315 0,0 Z"
       fill="#3db5da"
       transform="translate(619,331)"
       id="path60" />
  </g>
</svg>
